<svg width="24" height="24" viewBox="0 0 24 24" fill="none" xmlns="http://www.w3.org/2000/svg">
<path d="M12 2.125C11.6079 2.125 11.2214 2.15048 10.8419 2.19997C10.3628 2.26247 10.025 2.70161 10.0875 3.1808C10.15 3.65999 10.5891 3.99777 11.0683 3.93527C11.3728 3.89554 11.6838 3.875 12 3.875C12.3162 3.875 12.6272 3.89554 12.9317 3.93527C13.4109 3.99777 13.85 3.65999 13.9125 3.1808C13.975 2.70161 13.6372 2.26247 13.1581 2.19997C12.7786 2.15048 12.3921 2.125 12 2.125Z" fill="white"/>
<path d="M17.4034 3.959C17.0203 3.66454 16.4709 3.73647 16.1765 4.11964C15.882 4.50282 15.9539 5.05215 16.3371 5.34661C16.831 5.72615 17.2738 6.16899 17.6534 6.66289C17.9478 7.04607 18.4972 7.11799 18.8804 6.82353C19.2635 6.52907 19.3355 5.97974 19.041 5.59657C18.5688 4.98206 18.0179 4.43122 17.4034 3.959Z" fill="white"/>
<path d="M7.66289 5.34661C8.04607 5.05215 8.11799 4.50282 7.82353 4.11964C7.52907 3.73647 6.97974 3.66454 6.59657 3.959C5.98206 4.43122 5.43122 4.98206 4.959 5.59657C4.66454 5.97974 4.73647 6.52908 5.11964 6.82353C5.50282 7.11799 6.05215 7.04607 6.34661 6.66289C6.72615 6.16899 7.16899 5.72615 7.66289 5.34661Z" fill="white"/>
<path d="M4.93527 10.0683C4.99777 9.58911 4.65999 9.14998 4.1808 9.08748C3.70161 9.02497 3.26247 9.36276 3.19997 9.84195C3.15048 10.2214 3.125 10.6079 3.125 11C3.125 11.3921 3.15048 11.7786 3.19997 12.1581C3.26247 12.6372 3.70161 12.975 4.1808 12.9125C4.65999 12.85 4.99777 12.4109 4.93527 11.9317C4.89554 11.6272 4.875 11.3162 4.875 11C4.875 10.6838 4.89554 10.3728 4.93527 10.0683Z" fill="white"/>
<path d="M20.8 9.84195C20.7375 9.36276 20.2984 9.02497 19.8192 9.08748C19.34 9.14998 19.0022 9.58911 19.0647 10.0683C19.1045 10.3728 19.125 10.6838 19.125 11C19.125 11.3162 19.1045 11.6272 19.0647 11.9317C19.0022 12.4109 19.34 12.85 19.8192 12.9125C20.2984 12.975 20.7375 12.6372 20.8 12.1581C20.8495 11.7786 20.875 11.3921 20.875 11C20.875 10.6079 20.8495 10.2214 20.8 9.84195Z" fill="white"/>
<path d="M19.041 16.4034C19.3355 16.0203 19.2635 15.4709 18.8804 15.1765C18.4972 14.882 17.9478 14.9539 17.6534 15.3371C17.2738 15.831 16.831 16.2738 16.3371 16.6534C15.9539 16.9478 15.882 17.4972 16.1765 17.8804C16.4709 18.2635 17.0203 18.3355 17.4034 18.041C18.0179 17.5688 18.5688 17.0179 19.041 16.4034Z" fill="white"/>
<path d="M6.34661 15.3371C6.05215 14.9539 5.50282 14.882 5.11964 15.1765C4.73647 15.4709 4.66454 16.0203 4.959 16.4034C5.43122 17.0179 5.98206 17.5688 6.59657 18.041C6.97974 18.3355 7.52908 18.2635 7.82353 17.8804C8.11799 17.4972 8.04607 16.9478 7.66289 16.6534C7.16899 16.2738 6.72615 15.831 6.34661 15.3371Z" fill="white"/>
<path d="M11.125 22C11.125 22.4832 11.5168 22.875 12 22.875C12.4832 22.875 12.875 22.4832 12.875 22C12.875 19.3082 12.875 18.8102 12.875 16.4205L15.0466 14.6833C15.424 14.3814 15.4851 13.8307 15.1833 13.4534C14.8814 13.076 14.3307 13.0149 13.9534 13.3167L12.875 14.1795V12C12.875 11.5168 12.4832 11.125 12 11.125C11.5168 11.125 11.125 11.5168 11.125 12V14.1795L10.0466 13.3167C9.66926 13.0149 9.11862 13.076 8.81674 13.4534C8.51486 13.8307 8.57604 14.3814 8.95339 14.6833L11.125 16.4205C11.125 18.8102 11.125 19.3082 11.125 22Z" fill="white"/>
</svg>
