<svg width="24" height="24" viewBox="0 0 24 24" fill="none" xmlns="http://www.w3.org/2000/svg">
<path fill-rule="evenodd" clip-rule="evenodd" d="M11.125 19.8324C6.63419 19.3929 3.125 15.6063 3.125 11C3.125 6.09847 7.09847 2.125 12 2.125C16.9015 2.125 20.875 6.09847 20.875 11C20.875 15.6063 17.3658 19.3929 12.875 19.8324V22C12.875 22.4832 12.4832 22.875 12 22.875C11.5168 22.875 11.125 22.4832 11.125 22V19.8324ZM4.875 11C4.875 7.06497 8.06497 3.875 12 3.875C15.935 3.875 19.125 7.06497 19.125 11C19.125 14.6388 16.3972 17.6405 12.875 18.0718V16.4205L15.0466 14.6833C15.424 14.3814 15.4851 13.8307 15.1833 13.4534C14.8814 13.076 14.3307 13.0149 13.9534 13.3167L12.875 14.1795V12C12.875 11.5168 12.4832 11.125 12 11.125C11.5168 11.125 11.125 11.5168 11.125 12V14.1795L10.0466 13.3167C9.66926 13.0149 9.11862 13.076 8.81674 13.4534C8.51486 13.8307 8.57604 14.3814 8.95339 14.6833L11.125 16.4205V18.0718C7.60276 17.6405 4.875 14.6388 4.875 11Z" fill="white"/>
</svg>
